# xmcd
#
# Track frame offsets:
# 150
# 16599
# 34279
# 53972
# 73333
# 90586
# 104318
# 120177
# 133008
# 151607
# 169193
# 189860
#
# Disc length: 2727 seconds
#
#
# Revision: 0
# Processed by: cddbd v1.5.2PL0 Copyright (c) Steve Scherf et al.
# Submitted via: FreeRIP 2.951 
#
DISCID=8f0aa50c
DTITLE=White and Frank - Blues are the roots
DYEAR=2004
DGENRE=Blues
TTITLE0=Sally Mae
TTITLE1=I'm King
TTITLE2=40 Days
TTITLE3=Glory Be
TTITLE4=Cut you loose
TTITLE5=Spoonful
TTITLE6=Things that I use to do
TTITLE7=I'm rich
TTITLE8=Blue midnight
TTITLE9=Big leg women
TTITLE10=Now I love you baby
TTITLE11=Catfish
EXTD=
EXTT0=
EXTT1=
EXTT2=
EXTT3=
EXTT4=
EXTT5=
EXTT6=
EXTT7=
EXTT8=
EXTT9=
EXTT10=
EXTT11=
PLAYORDER=
